<svg width="1115.3123046875px" height="183.10494995117188px" xmlns="http://www.w3.org/2000/svg" viewBox="-307.65615234375 -16.552474975585938 1115.3123046875 183.10494995117188" style="background: rgba(0, 0, 0, 0);" preserveAspectRatio="xMidYMid"><defs><filter id="editing-hole" x="-100%" y="-100%" width="300%" height="300%"><feFlood flood-color="#000" result="black"></feFlood><feMorphology operator="dilate" radius="2" in="SourceGraphic" result="erode"></feMorphology><feGaussianBlur in="erode" stdDeviation="4" result="blur"></feGaussianBlur><feOffset in="blur" dx="2" dy="2" result="offset"></feOffset><feComposite operator="atop" in="offset" in2="black" result="merge"></feComposite><feComposite operator="in" in="merge" in2="SourceGraphic" result="inner-shadow"></feComposite></filter></defs><g filter="url(#editing-hole)"><g transform="translate(-151.49534368515015, 111.15500068664551)"><path d="M43.47-33.17L64.27-35.02L64.27-35.02Q56.86-18.75 56.86 0.10L56.86 0.10L56.86 0.10Q54.08 2.06 50.01 2.06L50.01 2.06L50.01 2.06Q45.94 2.06 43.36 0.15L43.36 0.15L43.36 0.15Q40.79-1.75 40.27-3.71L40.27-3.71L40.27-3.71Q37.70-1.03 33.53 0.52L33.53 0.52L33.53 0.52Q29.36 2.06 24.93 2.06L24.93 2.06L24.93 2.06Q20.50 2.06 16.63 0.62L16.63 0.62L16.63 0.62Q12.77-0.82 9.79-4.02L9.79-4.02L9.79-4.02Q3.19-11.02 3.19-24.31L3.19-24.31L3.19-24.31Q3.19-44.91 14.21-57.27L14.21-57.27L14.21-57.27Q25.54-70.04 45.63-70.04L45.63-70.04L45.63-70.04Q59.53-70.04 64.48-62.83L64.48-62.83L64.48-62.83Q66.02-60.56 66.02-57.83L66.02-57.83L66.02-57.83Q66.02-55.11 64.84-52.79L64.84-52.79L64.84-52.79Q63.65-50.47 61.80-48.62L61.80-48.62L61.80-48.62Q57.37-44.50 51.91-44.50L51.91-44.50L51.91-44.50Q49.75-44.50 47.69-45.22L47.69-45.22L47.69-45.22Q48.10-48.31 48.10-51.91L48.10-51.91L48.10-51.91Q48.10-55.52 47.84-57.17L47.84-57.17L47.84-57.17Q47.59-58.81 46.97-60.15L46.97-60.15L46.97-60.15Q45.63-62.93 42.69-62.93L42.69-62.93L42.69-62.93Q39.76-62.93 36.51-59.79L36.51-59.79L36.51-59.79Q33.27-56.65 30.69-51.50L30.69-51.50L30.69-51.50Q25.03-39.96 25.03-26.06L25.03-26.06L25.03-26.06Q25.03-19.67 27.50-15.14L27.50-15.14L27.50-15.14Q30.18-10.20 34.92-10.20L34.92-10.20L34.92-10.20Q36.57-10.20 38.06-11.02L38.06-11.02L38.06-11.02Q39.55-11.85 40.17-12.46L40.17-12.46L43.47-33.17ZM114.54 2.06L114.54 2.06L114.54 2.06Q101.35 2.06 100.12-16.69L100.12-16.69L82.40-16.69L82.40-16.69Q80.34-11.95 78.90-7.83L78.90-7.83L76.22 0L61.80 0L94.25-67.98L116.39-67.98L120.72-17.92L120.72-17.92Q121.75-7.11 125.87-3.91L125.87-3.91L125.87-3.91Q122.88 2.06 114.54 2.06ZM91.26-37.29L85.59-24.21L99.81-24.21L98.57-50.68L98.57-53.46L91.26-37.29ZM153.16 0L130.71 0L143.79-67.98L166.45-67.98L153.16 0ZM189.73 0L167.79 0L179.53-62.62L180.66-67.98L202.70-67.98L189.73 0ZM231.54-6.08L231.54-6.08L231.54-6.08Q228.76 2.06 218.05 2.06L218.05 2.06L218.05 2.06Q210.12 2.06 204.66-7.42L204.66-7.42L204.66-7.42Q199.10-16.89 198.07-32.34L198.07-32.34L198.07-32.34Q209.40-53.05 217.23-61.59L217.23-61.59L217.23-61.59Q224.75-69.73 232.57-69.73L232.57-69.73L232.57-69.73Q236.80-69.73 239.84-67.47L239.84-67.47L239.84-67.47Q242.87-65.20 243.60-61.59L243.60-61.59L243.60-61.59Q240.09-60.15 238.45-59.02L238.45-59.02L238.45-59.02Q234.33-55.93 228.76-49.03L228.76-49.03L219.39-37.80L219.39-37.80Q217.12-35.12 216.20-33.89L216.20-33.89L216.20-33.89Q217.74-25.24 222.38-16.69L222.38-16.69L222.38-16.69Q226.81-8.55 231.54-6.08ZM242.87-63.86L242.87-63.86L242.87-63.86Q244.32-66.74 247.46-68.34L247.46-68.34L247.46-68.34Q250.60-69.94 254.93-69.94L254.93-69.94L254.93-69.94Q261.72-69.94 265.79-65.04L265.79-65.04L265.79-65.04Q269.86-60.15 269.86-49.44L269.86-49.44L269.86-12.67L293.45-67.88L305.60-67.88L308.38-15.76L308.07-12.77L332.59-67.88L346.70-67.88L313.74 0L291.80 0L289.74-31.31L276.14 0L251.32 0L248.23-49.44L248.23-49.44Q247.92-55.00 246.43-58.66L246.43-58.66L246.43-58.66Q244.93-62.32 242.87-63.86ZM384.91 2.06L384.91 2.06L384.91 2.06Q371.73 2.06 370.49-16.69L370.49-16.69L352.78-16.69L352.78-16.69Q350.72-11.95 349.27-7.83L349.27-7.83L346.60 0L332.18 0L364.62-67.98L386.77-67.98L391.09-17.92L391.09-17.92Q392.12-7.11 396.24-3.91L396.24-3.91L396.24-3.91Q393.25 2.06 384.91 2.06ZM361.63-37.29L355.97-24.21L370.18-24.21L368.95-50.68L368.95-53.46L361.63-37.29ZM469.06-42.75L469.06-42.75L469.06-42.75Q469.06 1.13 421.48 1.13L421.48 1.13L421.48 1.13Q413.85 1.13 401.29-0.72L401.29-0.72L412.82-61.59L412.82-61.59Q413.65-65.71 414.16-68.08L414.16-68.08L414.16-68.08Q429.82-69.22 436.77-69.22L436.77-69.22L436.77-69.22Q443.72-69.22 450.11-67.77L450.11-67.77L450.11-67.77Q456.50-66.33 460.72-63.14L460.72-63.14L460.72-63.14Q469.06-56.86 469.06-42.75ZM447.84-46.56L447.84-46.56L447.84-46.56Q447.84-61.90 436.82-61.90L436.82-61.90L435.79-61.90L435.79-61.90Q435.28-61.90 434.76-61.80L434.76-61.80L424.15-6.49L424.15-6.49Q424.57-6.28 424.98-6.28L424.98-6.28L425.80-6.28L425.80-6.28Q429.61-6.28 433.58-8.65L433.58-8.65L433.58-8.65Q437.54-11.02 440.63-15.86L440.63-15.86L440.63-15.86Q447.84-27.09 447.84-46.56ZM516.65 0L494.61 0L507.17-67.67L507.17-67.67Q517.37-68.80 532.25-68.80L532.25-68.80L532.25-68.80Q547.14-68.80 554.04-64.48L554.04-64.48L554.04-64.48Q560.94-60.15 560.94-51.45L560.94-51.45L560.94-51.45Q560.94-42.75 556.46-37.29L556.46-37.29L556.46-37.29Q551.98-31.83 544.25-30.08L544.25-30.08L544.25-30.08Q546.00-21.53 550.02-14.63L550.02-14.63L550.02-14.63Q553.73-8.14 558.05-6.08L558.05-6.08L558.05-6.08Q556.51-1.75 553.37 0.15L553.37 0.15L553.37 0.15Q550.23 2.06 545.75 2.06L545.75 2.06L545.75 2.06Q541.27 2.06 537.76-0.57L537.76-0.57L537.76-0.57Q534.26-3.19 531.48-8.03L531.48-8.03L531.48-8.03Q525.61-18.54 524.99-35.12L524.99-35.12L525.71-35.12L525.71-35.12Q533.33-35.33 537.15-39.29L537.15-39.29L537.15-39.29Q540.96-43.26 540.96-51.60L540.96-51.60L540.96-51.60Q540.96-62.01 532.20-62.42L532.20-62.42L529.94-62.42L529.94-62.42Q529.01-62.42 528.49-62.32L528.49-62.32L516.65 0ZM567.22-25.13L567.22-25.13L567.22-25.13Q567.22-44.60 577.32-56.86L577.32-56.86L577.32-56.86Q588.03-70.14 606.67-70.14L606.67-70.14L606.67-70.14Q620.16-70.14 626.96-63.60L626.96-63.60L626.96-63.60Q633.76-57.06 633.76-43.26L633.76-43.26L633.76-43.26Q633.76-22.25 623.05-9.99L623.05-9.99L623.05-9.99Q612.44 2.06 594.62 2.06L594.62 2.06L594.62 2.06Q580.71 2.06 573.97-4.89L573.97-4.89L573.97-4.89Q567.22-11.85 567.22-25.13ZM594.31-46.45L594.31-46.45L594.31-46.45Q589.68-27.91 589.68-13.29L589.68-13.29L589.68-13.29Q589.68-9.79 590.86-7.52L590.86-7.52L590.86-7.52Q592.04-5.25 595.19-5.25L595.19-5.25L595.19-5.25Q598.33-5.25 600.28-6.75L600.28-6.75L600.28-6.75Q602.24-8.24 603.79-11.64L603.79-11.64L603.79-11.64Q606.26-17.20 608.58-28.99L608.58-28.99L608.58-28.99Q610.89-40.79 611.10-45.68L611.10-45.68L611.10-45.68Q611.31-50.57 611.31-54.28L611.31-54.28L611.31-54.28Q611.31-57.99 610.17-60.36L610.17-60.36L610.17-60.36Q609.04-62.73 606.00-62.73L606.00-62.73L606.00-62.73Q602.96-62.73 600.90-60.87L600.90-60.87L600.90-60.87Q597.09-57.37 594.31-46.45ZM677.23-7.73L677.23-7.73L677.23-7.73Q677.23-14.94 680.11-29.36L680.11-29.36L664.87-29.36L659.20 0L637.67 0L650.75-67.98L672.49-67.98L666.51-37.60L681.76-37.60L687.42-67.98L709.16-67.98L709.16-67.98Q707.71-60.36 705.86-51.81L705.86-51.81L702.36-35.02L702.36-35.02Q698.44-15.45 698.44-6.90L698.44-6.90L698.44-6.90Q698.44-3.40 699.58-1.44L699.58-1.44L699.58-1.44Q694.43 2.06 688.40 2.06L688.40 2.06L688.40 2.06Q682.38 2.06 679.80-0.82L679.80-0.82L679.80-0.82Q677.23-3.71 677.23-7.73ZM732.95 0L710.49 0L723.58-67.98L746.24-67.98L732.95 0ZM756.74-50.16L756.74-50.16L756.74-50.16Q753.24-52.84 753.24-58.56L753.24-58.56L753.24-58.56Q753.24-64.27 757.00-67.26L757.00-67.26L757.00-67.26Q760.76-70.25 767.25-70.25L767.25-70.25L767.25-70.25Q771.37-70.25 781.15-68.80L781.15-68.80L788.16-67.77L788.16-67.77Q791.66-67.36 795.31-67.36L795.31-67.36L795.31-67.36Q798.97-67.36 801.44-68.91L801.44-68.91L801.44-68.91Q805.15-65.61 805.15-60.87L805.15-60.87L805.15-60.87Q805.15-56.14 800.93-52.74L800.93-52.74L800.93-52.74Q796.60-49.13 791.04-49.13L791.04-49.13L791.04-49.13Q788.36-49.13 784.04-49.85L784.04-49.85L784.04-49.85Q778.99-33.99 778.99-22.97L778.99-22.97L778.99-22.97Q778.99-11.95 784.55-6.18L784.55-6.18L784.55-6.18Q781.98-1.55 778.17 0.26L778.17 0.26L778.17 0.26Q774.35 2.06 768.64 2.06L768.64 2.06L768.64 2.06Q762.92 2.06 759.37-1.08L759.37-1.08L759.37-1.08Q755.81-4.22 755.81-10.71L755.81-10.71L755.81-10.71Q755.81-18.23 759.93-30.59L759.93-30.59L759.93-30.59Q764.05-42.85 770.23-52.22L770.23-52.22L770.23-52.22Q767.25-52.53 764.16-52.53L764.16-52.53L764.16-52.53Q757.77-52.53 756.74-50.16Z" fill="#ccc"></path></g></g><style>text {
  font-size: 64px;
  font-family: Arial Black;
  dominant-baseline: central;
  text-anchor: middle;
}</style></svg>