<svg width="910.6042724609375px" height="165.33333740234374px" xmlns="http://www.w3.org/2000/svg" viewBox="-205.30213623046876 -7.666668701171872 910.6042724609375 165.33333740234374" style="background:#051103" preserveAspectRatio="xMidYMid"><defs><linearGradient id="editing-glowing-gradient" x1="0.8146601955249186" x2="0.18533980447508142" y1="0.8885729807284856" y2="0.11142701927151444"><stop offset="0" stop-color="#67ff43"></stop><stop offset="1" stop-color="#90ffff"></stop></linearGradient><filter id="editing-glowing" x="-100%" y="-100%" width="300%" height="300%"><feGaussianBlur in="SourceGraphic" result="blur" stdDeviation="10"></feGaussianBlur><feMerge><feMergeNode in="blur"></feMergeNode><feMergeNode in="SourceGraphic"></feMergeNode></feMerge></filter></defs><g filter="url(#editing-glowing)"><g transform="translate(-71.89154148101807, 122.6100025177002)"><path d="M11.79-3.15L11.79-3.15L11.79-3.15Q12.96-11.79 12.96-27.95L12.96-27.95L12.96-27.95Q12.96-44.10 12.06-53.82L12.06-53.82L12.06-53.82Q2.25-53.64-0.54-50.94L-0.54-50.94L-0.54-50.94Q-1.17-49.68-1.17-46.98L-1.17-46.98L-1.17-46.98Q-1.17-44.28-0.27-43.29L-0.27-43.29L-0.36-42.66L-0.36-42.66Q-2.61-41.31-4.86-38.88L-4.86-38.88L-4.86-38.88Q-5.94-38.97-6.61-39.78L-6.61-39.78L-6.61-39.78Q-7.29-40.59-7.29-41.67L-7.29-41.67L-7.29-41.67Q-7.29-45.81-2.56-51.48L-2.56-51.48L-2.56-51.48Q2.16-57.15 6.48-59.31L6.48-59.31L6.48-59.31Q14.13-58.59 28.62-58.59L28.62-58.59L28.62-58.59Q37.80-58.59 42.57-55.84L42.57-55.84L42.57-55.84Q47.34-53.10 47.34-45.36L47.34-45.36L47.34-45.36Q47.34-34.38 36.09-30.06L36.09-30.06L48.69-3.42L48.69-3.42Q53.28-2.79 57.33-1.53L57.33-1.53L56.97 0.72L56.97 0.72Q51.66 0 45.49 0L45.49 0L45.49 0Q39.33 0 36.54 0.36L36.54 0.36L36.18-0.90L36.18-0.90Q37.71-2.43 37.71-6.03L37.71-6.03L37.71-6.03Q37.71-13.23 29.25-28.98L29.25-28.98L29.25-28.98Q27-29.43 24.03-29.43L24.03-29.43L24.30-31.41L25.38-31.41L25.38-31.41Q31.86-31.41 35.37-34.60L35.37-34.60L35.37-34.60Q38.88-37.80 38.88-43.88L38.88-43.88L38.88-43.88Q38.88-49.95 35.73-52.02L35.73-52.02L35.73-52.02Q32.58-54.09 25.83-54.09L25.83-54.09L25.83-54.09Q22.68-54.09 20.61-53.82L20.61-53.82L20.61-53.82Q19.89-45.81 19.89-27.99L19.89-27.99L19.89-27.99Q19.89-10.17 20.88-3.42L20.88-3.42L20.88-3.42Q25.47-2.79 29.52-1.53L29.52-1.53L29.16 0.72L29.16 0.72Q24.39 0 16.61 0L16.61 0L16.61 0Q8.82 0 2.16 0.72L2.16 0.72L1.89-1.44L1.89-1.44Q7.02-2.70 11.79-3.15ZM83.88-59.94L83.88-59.94Q94.86-59.94 100.48-53.37L100.48-53.37L100.48-53.37Q106.11-46.80 106.11-34.60L106.11-34.60L106.11-34.60Q106.11-22.41 99.94-12.64L99.94-12.64L99.94-12.64Q93.78-2.88 82.80 1.35L82.80 1.35L82.80 1.35Q72.27 1.35 65.88-5.63L65.88-5.63L65.88-5.63Q59.49-12.60 59.49-23.85L59.49-23.85L59.49-23.85Q59.49-42.21 72.81-54.27L72.81-54.27L73.89-53.55L73.89-53.55Q67.50-44.28 67.50-30.51L67.50-30.51L67.50-30.51Q67.50-20.70 72.05-12.91L72.05-12.91L72.05-12.91Q76.59-5.13 84.69-5.13L84.69-5.13L84.69-5.13Q90-5.13 93.60-8.28L93.60-8.28L93.60-8.28Q98.10-16.56 98.10-27.90L98.10-27.90L98.10-27.90Q98.10-42.75 92.43-49.68L92.43-49.68L92.43-49.68Q89.37-53.46 84.78-53.46L84.78-53.46L84.78-53.46Q82.44-53.46 80.46-52.11L80.46-52.11L80.46-52.11Q78.48-50.76 77.67-48.60L77.67-48.60L77.67-48.60Q77.67-46.80 78.48-44.41L78.48-44.41L78.48-44.41Q79.29-42.03 80.55-41.40L80.55-41.40L80.73-40.77L80.73-40.77Q78.75-38.34 77.76-35.64L77.76-35.64L77.76-35.64Q77.58-35.55 77.04-35.55L77.04-35.55L77.04-35.55Q73.80-35.55 73.80-41.31L73.80-41.31L73.80-41.31Q73.80-51.03 83.88-59.94L83.88-59.94ZM161.91-58.68L161.91-58.68L161.91-26.64L161.91-26.64Q161.91-9.81 163.08-3.15L163.08-3.15L163.08-3.15Q167.85-2.70 172.98-1.44L172.98-1.44L172.71 0.72L172.71 0.72Q166.95 0 159.07 0L159.07 0L159.07 0Q151.20 0 145.71 0.72L145.71 0.72L145.35-1.53L145.35-1.53Q149.40-2.79 153.99-3.42L153.99-3.42L153.99-3.42Q154.89-12.51 154.98-29.52L154.98-29.52L154.98-29.52Q148.32-30.15 141.75-30.15L141.75-30.15L141.75-30.15Q135.18-30.15 128.52-29.52L128.52-29.52L128.52-29.52Q128.61-10.26 129.69-3.15L129.69-3.15L129.69-3.15Q134.46-2.70 139.59-1.44L139.59-1.44L139.32 0.72L139.32 0.72Q132.66 0 124.88 0L124.88 0L124.88 0Q117.09 0 112.32 0.72L112.32 0.72L111.96-1.53L111.96-1.53Q116.01-2.79 120.60-3.42L120.60-3.42L120.60-3.42Q121.59-10.80 121.59-26.64L121.59-26.64L121.59-31.95L121.59-31.95Q121.59-43.74 120.60-53.64L120.60-53.64L120.51-53.64L120.51-53.64Q109.89-53.64 106.92-50.76L106.92-50.76L106.92-50.76Q106.29-49.50 106.29-46.80L106.29-46.80L106.29-46.80Q106.29-44.10 107.19-43.11L107.19-43.11L107.10-42.48L107.10-42.48Q104.85-41.13 102.60-38.70L102.60-38.70L102.60-38.70Q101.52-38.79 100.84-39.60L100.84-39.60L100.84-39.60Q100.17-40.41 100.17-41.49L100.17-41.49L100.17-41.49Q100.17-45.90 105.48-52.02L105.48-52.02L105.48-52.02Q110.79-58.14 115.38-59.76L115.38-59.76L115.38-59.76Q116.10-59.76 121.86-59.17L121.86-59.17L121.86-59.17Q127.62-58.59 130.91-58.59L130.91-58.59L130.91-58.59Q134.19-58.59 136.98-59.13L136.98-59.13L137.34-56.88L137.34-56.88Q133.83-55.53 129.33-54.45L129.33-54.45L129.33-54.45Q128.70-47.70 128.52-34.38L128.52-34.38L128.52-34.38Q135.36-33.48 142.11-33.48L142.11-33.48L142.11-33.48Q148.86-33.48 154.98-34.29L154.98-34.29L154.98-34.29Q154.89-50.40 154.17-58.77L154.17-58.77L154.17-58.77Q155.88-64.26 162.50-70.74L162.50-70.74L162.50-70.74Q169.11-77.22 174.06-77.22L174.06-77.22L174.06-77.22Q175.14-77.22 176.00-76.55L176.00-76.55L176.00-76.55Q176.85-75.87 176.85-74.79L176.85-74.79L176.85-74.79Q174.42-72.54 173.07-70.29L173.07-70.29L172.44-70.20L172.44-70.20Q171.45-71.10 168.75-71.10L168.75-71.10L168.75-71.10Q166.05-71.10 164.79-70.47L164.79-70.47L164.79-70.47Q161.91-67.14 161.91-58.68ZM193.23-55.44L193.23-55.44L193.23-55.44Q192.24-48.69 192.24-30.24L192.24-30.24L192.24-30.24Q192.24-11.79 193.41-3.15L193.41-3.15L193.41-3.15Q198.18-2.70 203.31-1.44L203.31-1.44L203.04 0.72L203.04 0.72Q196.38 0 188.60 0L188.60 0L188.60 0Q180.81 0 176.04 0.72L176.04 0.72L175.68-1.53L175.68-1.53Q179.73-2.79 184.32-3.42L184.32-3.42L184.32-3.42Q185.31-10.80 185.31-26.64L185.31-26.64L185.31-31.95L185.31-31.95Q185.31-46.53 184.14-55.17L184.14-55.17L184.14-55.17Q179.55-55.80 175.50-57.06L175.50-57.06L175.86-59.31L175.86-59.31Q180.63-58.59 188.42-58.59L188.42-58.59L188.42-58.59Q196.20-58.59 202.86-59.31L202.86-59.31L203.13-57.15L203.13-57.15Q198-55.89 193.23-55.44ZM215.28-59.94L215.28-59.94Q221.49-59.67 229.54-58.86L229.54-58.86L229.54-58.86Q237.60-58.05 241.02-58.05L241.02-58.05L241.02-58.05Q244.44-58.05 246.15-58.59L246.15-58.59L246.15-58.59Q250.29-62.55 252-64.62L252-64.62L253.44-63.54L253.44-63.54Q248.67-57.33 247.68-50.58L247.68-50.58L247.68-50.58Q238.77-53.01 231.39-53.55L231.39-53.55L231.39-53.55Q230.76-43.74 230.76-27.77L230.76-27.77L230.76-27.77Q230.76-11.79 231.93-3.15L231.93-3.15L231.93-3.15Q236.43-2.70 241.83-1.44L241.83-1.44L241.56 0.72L241.56 0.72Q234.90 0 227.12 0L227.12 0L227.12 0Q219.33 0 214.56 0.72L214.56 0.72L214.20-1.53L214.20-1.53Q218.25-2.79 222.84-3.42L222.84-3.42L222.84-3.42Q223.83-10.80 223.83-26.64L223.83-26.64L223.83-31.95L223.83-31.95Q223.83-40.86 222.75-53.82L222.75-53.82L220.41-53.82L220.41-53.82Q209.79-53.82 206.82-50.94L206.82-50.94L206.82-50.94Q206.19-49.68 206.19-46.98L206.19-46.98L206.19-46.98Q206.19-44.28 207.09-43.29L207.09-43.29L207-42.66L207-42.66Q204.75-41.31 202.50-38.88L202.50-38.88L202.50-38.88Q201.42-38.97 200.75-39.78L200.75-39.78L200.75-39.78Q200.07-40.59 200.07-41.67L200.07-41.67L200.07-41.67Q200.07-46.08 205.38-52.20L205.38-52.20L205.38-52.20Q210.69-58.32 215.28-59.94L215.28-59.94ZM294.30-5.94L294.30-5.94L294.30-5.94Q298.53-5.94 303.12-8.46L303.12-8.46L303.12-15.84L303.12-15.84Q303.12-17.91 302.76-21.87L302.76-21.87L302.76-21.87Q299.61-22.77 294.57-23.67L294.57-23.67L294.84-25.56L294.84-25.56Q296.91-25.29 298.80-25.29L298.80-25.29L298.80-25.29Q306.72-25.29 313.29-29.70L313.29-29.70L314.10-28.08L314.10-28.08Q312.03-26.46 310.86-24.84L310.86-24.84L310.86-24.84Q309.15-9.18 309.06 4.41L309.06 4.41L309.06 4.41Q306.45 9.18 300.47 13.59L300.47 13.59L300.47 13.59Q294.48 18 289.53 18L289.53 18L289.53 18Q288.18 18 287.28 17.28L287.28 17.28L287.28 17.28Q286.38 16.56 286.38 15.30L286.38 15.30L286.38 15.30Q288.99 13.32 290.79 10.71L290.79 10.71L291.42 10.62L291.42 10.62Q293.40 12.15 296.01 12.15L296.01 12.15L296.01 12.15Q298.62 12.15 299.61 11.61L299.61 11.61L299.61 11.61Q303.30 6.66 303.30-4.59L303.30-4.59L303.30-4.59Q298.35-0.72 292.32 1.35L292.32 1.35L292.32 1.35Q281.52 1.35 276.08-5.44L276.08-5.44L276.08-5.44Q270.63-12.24 270.63-24.25L270.63-24.25L270.63-24.25Q270.63-36.27 277.25-46.57L277.25-46.57L277.25-46.57Q283.86-56.88 295.02-59.94L295.02-59.94L295.02-59.94Q304.38-59.94 313.83-58.23L313.83-58.23L313.74-56.25L313.74-56.25Q311.49-56.25 309.42-55.44L309.42-55.44L309.42-55.44Q306.99-49.77 306.45-42.75L306.45-42.75L304.20-42.75L304.20-42.75Q303.39-46.44 303.39-51.12L303.39-51.12L303.39-51.12Q299.16-53.46 293.04-53.46L293.04-53.46L293.04-53.46Q286.92-53.46 283.23-50.40L283.23-50.40L283.23-50.40Q278.64-42.57 278.64-30.51L278.64-30.51L278.64-30.51Q278.64-5.94 294.30-5.94ZM361.35-60.93L361.35-60.93Q360.09-54.63 359.64-47.97L359.64-47.97L359.64-47.97Q359.19-41.31 359.19-26.55L359.19-26.55L359.19-26.55Q359.19-11.79 360.36-3.15L360.36-3.15L360.36-3.15Q365.13-2.70 370.26-1.44L370.26-1.44L369.99 0.72L369.99 0.72Q363.33 0 355.55 0L355.55 0L355.55 0Q347.76 0 342.99 0.72L342.99 0.72L342.63-1.53L342.63-1.53Q346.68-2.79 351.27-3.42L351.27-3.42L351.27-3.42Q351.99-9.36 352.26-22.59L352.26-22.59L352.26-22.59Q347.58-23.13 341.96-23.13L341.96-23.13L341.96-23.13Q336.33-23.13 332.46-22.59L332.46-22.59L332.46-22.59Q330.30-13.77 330.30-8.46L330.30-8.46L330.30-8.46Q330.30-3.15 334.17-0.90L334.17-0.90L333.81 0.36L333.81 0.36Q331.02 0 324.41 0L324.41 0L324.41 0Q317.79 0 312.48 0.72L312.48 0.72L312.12-1.53L312.12-1.53Q316.17-2.79 320.76-3.42L320.76-3.42L334.98-53.82L334.98-53.82Q324.36-53.82 321.39-50.94L321.39-50.94L321.39-50.94Q320.76-49.68 320.76-46.98L320.76-46.98L320.76-46.98Q320.76-44.28 321.66-43.29L321.66-43.29L321.57-42.66L321.57-42.66Q319.32-41.31 317.07-38.88L317.07-38.88L317.07-38.88Q315.99-38.97 315.31-39.78L315.31-39.78L315.31-39.78Q314.64-40.59 314.64-41.67L314.64-41.67L314.64-41.67Q314.64-46.08 319.95-52.20L319.95-52.20L319.95-52.20Q325.26-58.32 329.85-59.94L329.85-59.94L329.85-59.94Q343.44-58.41 357.39-57.33L357.39-57.33L357.39-57.33Q358.65-58.95 359.46-61.47L359.46-61.47L361.35-60.93ZM339.93-53.82L333.45-27.09L333.45-27.09Q337.50-26.46 343.04-26.46L343.04-26.46L343.04-26.46Q348.57-26.46 352.26-27.09L352.26-27.09L352.26-27.09Q352.26-43.02 351.81-53.10L351.81-53.10L351.54-53.37L351.54-53.37Q346.86-53.82 339.93-53.82L339.93-53.82ZM390.51-55.44L390.51-55.44L390.51-55.44Q389.52-48.69 389.52-30.24L389.52-30.24L389.52-30.24Q389.52-11.79 390.69-3.15L390.69-3.15L390.69-3.15Q395.46-2.70 400.59-1.44L400.59-1.44L400.32 0.72L400.32 0.72Q393.66 0 385.88 0L385.88 0L385.88 0Q378.09 0 373.32 0.72L373.32 0.72L372.96-1.53L372.96-1.53Q377.01-2.79 381.60-3.42L381.60-3.42L381.60-3.42Q382.59-10.80 382.59-26.64L382.59-26.64L382.59-31.95L382.59-31.95Q382.59-46.53 381.42-55.17L381.42-55.17L381.42-55.17Q376.83-55.80 372.78-57.06L372.78-57.06L373.14-59.31L373.14-59.31Q377.91-58.59 385.69-58.59L385.69-58.59L385.69-58.59Q393.48-58.59 400.14-59.31L400.14-59.31L400.41-57.15L400.41-57.15Q395.28-55.89 390.51-55.44ZM419.85-31.50L419.85-31.50L419.85-26.55L419.85-26.55Q427.68-34.83 431.95-40.59L431.95-40.59L431.95-40.59Q436.23-46.35 437.17-48.78L437.17-48.78L437.17-48.78Q438.12-51.21 438.12-53.68L438.12-53.68L438.12-53.68Q438.12-56.16 436.59-57.69L436.59-57.69L436.95-58.95L436.95-58.95Q439.74-58.59 444.91-58.59L444.91-58.59L444.91-58.59Q450.09-58.59 455.40-59.31L455.40-59.31L455.76-57.06L455.76-57.06Q451.71-55.80 447.12-55.17L447.12-55.17L447.12-55.17Q446.31-47.52 433.98-35.73L433.98-35.73L449.64-2.07L449.64-2.07Q453.15 5.49 457.29 7.38L457.29 7.38L457.29 7.38Q458.91 7.38 461.25 6.21L461.25 6.21L461.25 6.21Q463.59 5.04 464.13 3.87L464.13 3.87L464.67 3.69L464.67 3.69Q467.10 5.31 470.07 6.21L470.07 6.21L470.07 6.21Q470.34 6.75 470.34 7.69L470.34 7.69L470.34 7.69Q470.34 8.64 468.85 9.49L468.85 9.49L468.85 9.49Q467.37 10.35 464.67 10.35L464.67 10.35L464.67 10.35Q459 10.35 451.30 7.20L451.30 7.20L451.30 7.20Q443.61 4.05 440.64 0.72L440.64 0.72L440.64 0.72Q438.66-8.01 436.23-14.49L436.23-14.49L436.23-14.49Q433.80-20.97 428.85-30.96L428.85-30.96L428.85-30.96Q423.81-26.37 419.85-23.13L419.85-23.13L419.85-23.13Q420.12-9.45 421.02-3.15L421.02-3.15L421.02-3.15Q425.79-2.70 430.92-1.44L430.92-1.44L430.65 0.72L430.65 0.72Q423.99 0 416.20 0L416.20 0L416.20 0Q408.42 0 403.65 0.72L403.65 0.72L403.29-1.53L403.29-1.53Q407.34-2.79 411.93-3.42L411.93-3.42L411.93-3.42Q412.92-10.80 412.92-26.64L412.92-26.64L412.92-31.95L412.92-31.95Q412.92-43.74 411.93-53.64L411.93-53.64L411.84-53.64L411.84-53.64Q401.22-53.64 398.25-50.76L398.25-50.76L398.25-50.76Q397.62-49.50 397.62-46.80L397.62-46.80L397.62-46.80Q397.62-44.10 398.52-43.11L398.52-43.11L398.43-42.48L398.43-42.48Q396.18-41.13 393.93-38.70L393.93-38.70L393.93-38.70Q392.85-38.79 392.17-39.60L392.17-39.60L392.17-39.60Q391.50-40.41 391.50-41.49L391.50-41.49L391.50-41.49Q391.50-45.90 396.81-52.02L396.81-52.02L396.81-52.02Q402.12-58.14 406.71-59.76L406.71-59.76L406.71-59.76Q407.43-59.76 413.19-59.17L413.19-59.17L413.19-59.17Q418.95-58.59 422.23-58.59L422.23-58.59L422.23-58.59Q425.52-58.59 428.31-59.13L428.31-59.13L428.67-56.88L428.67-56.88Q425.16-55.53 420.66-54.45L420.66-54.45L420.66-54.45Q419.85-46.17 419.85-31.50ZM489.60-1.53L489.33 0.36L489.33 0.36Q485.01 0 480.24 0L480.24 0L480.24 0Q475.47 0 472.68 0.36L472.68 0.36L472.32-0.90L472.32-0.90Q473.40-1.26 474.39-2.02L474.39-2.02L474.39-2.02Q475.38-2.79 475.38-3.69L475.38-3.69L475.38-3.69Q475.38-10.26 463.41-47.61L463.41-47.61L463.41-47.61Q462.33-51.03 461.25-53.64L461.25-53.64L461.25-53.64Q450.72-53.64 447.75-50.76L447.75-50.76L447.75-50.76Q447.12-49.50 447.12-46.80L447.12-46.80L447.12-46.80Q447.12-44.10 448.02-43.11L448.02-43.11L447.93-42.48L447.93-42.48Q445.68-41.13 443.43-38.70L443.43-38.70L443.43-38.70Q442.35-38.79 441.68-39.60L441.68-39.60L441.68-39.60Q441-40.41 441-41.49L441-41.49L441-41.49Q441-45.90 446.31-52.02L446.31-52.02L446.31-52.02Q451.62-58.14 456.21-59.76L456.21-59.76L456.21-59.76Q456.93-59.76 462.69-59.17L462.69-59.17L462.69-59.17Q468.45-58.59 471.87-58.59L471.87-58.59L482.40-58.59L482.40-58.59Q501.84-58.59 510.57-59.49L510.57-59.49L510.93-57.24L510.93-57.24Q506.97-55.98 502.29-55.17L502.29-55.17L502.29-55.17Q502.74-52.02 502.74-49.45L502.74-49.45L502.74-49.45Q502.74-46.89 502.02-43.02L502.02-43.02L502.02-43.02Q505.44-27.72 512.82-6.21L512.82-6.21L512.82-6.21Q519.48-23.04 521.60-31.72L521.60-31.72L521.60-31.72Q523.71-40.41 523.71-46.62L523.71-46.62L523.71-46.62Q523.71-55.08 519.21-57.69L519.21-57.69L519.57-58.95L519.57-58.95Q522.36-58.59 528.52-58.59L528.52-58.59L528.52-58.59Q534.69-58.59 540-59.31L540-59.31L540.36-57.06L540.36-57.06Q536.31-55.80 531.72-55.17L531.72-55.17L531.72-55.17Q532.17-52.02 532.17-49.95L532.17-49.95L532.17-49.95Q532.17-42.39 528.43-32.58L528.43-32.58L528.43-32.58Q524.70-22.77 514.89-3.06L514.89-3.06L514.89-3.06Q516.42-2.25 519.03-1.53L519.03-1.53L518.76 0.36L518.76 0.36Q514.44 0 509.67 0L509.67 0L509.67 0Q504.90 0 502.11 0.36L502.11 0.36L501.75-0.90L501.75-0.90Q502.83-1.26 503.82-2.02L503.82-2.02L503.82-2.02Q504.81-2.79 504.81-3.69L504.81-3.69L504.81-3.69Q504.81-9 498.42-30.60L498.42-30.60L498.06-30.60L498.06-30.60Q493.83-19.71 485.46-3.06L485.46-3.06L485.46-3.06Q486.99-2.25 489.60-1.53L489.60-1.53ZM483.39-6.21L483.39-6.21Q490.05-23.04 492.16-31.72L492.16-31.72L492.16-31.72Q494.28-40.41 494.28-46.57L494.28-46.57L494.28-46.57Q494.28-52.74 492.03-54.59L492.03-54.59L492.03-54.59Q489.78-56.43 482.81-56.43L482.81-56.43L482.81-56.43Q475.83-56.43 470.52-54.81L470.52-54.81L470.52-54.81Q471.33-47.43 475.15-32.94L475.15-32.94L475.15-32.94Q478.98-18.45 483.39-6.21L483.39-6.21ZM581.67-60.93L581.67-60.93Q580.41-54.63 579.96-47.97L579.96-47.97L579.96-47.97Q579.51-41.31 579.51-26.55L579.51-26.55L579.51-26.55Q579.51-11.79 580.68-3.15L580.68-3.15L580.68-3.15Q585.45-2.70 590.58-1.44L590.58-1.44L590.31 0.72L590.31 0.72Q583.65 0 575.87 0L575.87 0L575.87 0Q568.08 0 563.31 0.72L563.31 0.72L562.95-1.53L562.95-1.53Q567-2.79 571.59-3.42L571.59-3.42L571.59-3.42Q572.31-9.36 572.58-22.59L572.58-22.59L572.58-22.59Q567.90-23.13 562.27-23.13L562.27-23.13L562.27-23.13Q556.65-23.13 552.78-22.59L552.78-22.59L552.78-22.59Q550.62-13.77 550.62-8.46L550.62-8.46L550.62-8.46Q550.62-3.15 554.49-0.90L554.49-0.90L554.13 0.36L554.13 0.36Q551.34 0 544.72 0L544.72 0L544.72 0Q538.11 0 532.80 0.72L532.80 0.72L532.44-1.53L532.44-1.53Q536.49-2.79 541.08-3.42L541.08-3.42L555.30-53.82L555.30-53.82Q544.68-53.82 541.71-50.94L541.71-50.94L541.71-50.94Q541.08-49.68 541.08-46.98L541.08-46.98L541.08-46.98Q541.08-44.28 541.98-43.29L541.98-43.29L541.89-42.66L541.89-42.66Q539.64-41.31 537.39-38.88L537.39-38.88L537.39-38.88Q536.31-38.97 535.63-39.78L535.63-39.78L535.63-39.78Q534.96-40.59 534.96-41.67L534.96-41.67L534.96-41.67Q534.96-46.08 540.27-52.20L540.27-52.20L540.27-52.20Q545.58-58.32 550.17-59.94L550.17-59.94L550.17-59.94Q563.76-58.41 577.71-57.33L577.71-57.33L577.71-57.33Q578.97-58.95 579.78-61.47L579.78-61.47L581.67-60.93ZM560.25-53.82L553.77-27.09L553.77-27.09Q557.82-26.46 563.35-26.46L563.35-26.46L563.35-26.46Q568.89-26.46 572.58-27.09L572.58-27.09L572.58-27.09Q572.58-43.02 572.13-53.10L572.13-53.10L571.86-53.37L571.86-53.37Q567.18-53.82 560.25-53.82L560.25-53.82ZM602.28 1.98L600.39 1.53L600.39 1.53Q602.55-8.28 602.55-26.68L602.55-26.68L602.55-26.68Q602.55-45.09 601.74-53.82L601.74-53.82L601.74-53.82Q591.75-53.64 588.96-50.94L588.96-50.94L588.96-50.94Q588.33-49.68 588.33-46.98L588.33-46.98L588.33-46.98Q588.33-44.28 589.23-43.29L589.23-43.29L589.14-42.66L589.14-42.66Q586.89-41.31 584.64-38.88L584.64-38.88L584.64-38.88Q583.56-38.97 582.88-39.78L582.88-39.78L582.88-39.78Q582.21-40.59 582.21-41.67L582.21-41.67L582.21-41.67Q582.21-45.81 586.93-51.48L586.93-51.48L586.93-51.48Q591.66-57.15 595.98-59.31L595.98-59.31L595.98-59.31Q603.63-58.59 618.66-58.59L618.66-58.59L618.66-58.59Q643.23-58.59 643.23-34.74L643.23-34.74L643.23-34.74Q643.23-22.23 636.66-12.06L636.66-12.06L636.66-12.06Q630.09-1.89 618.84 1.35L618.84 1.35L618.84 1.35Q612.36 1.35 604.35-2.07L604.35-2.07L604.35-2.07Q602.82 0.27 602.28 1.98L602.28 1.98ZM617.22-54.36L617.22-54.36L617.22-54.36Q613.08-54.36 610.29-53.91L610.29-53.91L610.29-53.91Q609.48-45.45 609.48-30.51L609.48-30.51L609.48-30.51Q609.48-15.57 609.93-7.65L609.93-7.65L609.93-7.65Q614.79-5.13 621.00-5.13L621.00-5.13L621.00-5.13Q627.21-5.13 630.63-8.19L630.63-8.19L630.63-8.19Q635.22-16.56 635.22-28.89L635.22-28.89L635.22-28.89Q635.22-41.22 631.39-47.79L631.39-47.79L631.39-47.79Q627.57-54.36 617.22-54.36Z" fill="url(#editing-glowing-gradient)"></path></g></g><style>text {
  font-size: 64px;
  font-family: Arial Black;
  dominant-baseline: central;
  text-anchor: middle;
}</style></svg>