<?xml version="1.0" encoding="utf-8"?>
<svg xmlns="http://www.w3.org/2000/svg" style="margin: auto; background: rgb(255, 251, 243); display: block; shape-rendering: auto;" width="282" height="135" preserveAspectRatio="xMidYMid">
<style type="text/css">
  text {
    text-anchor: middle; font-size: 71px; opacity: 0;
  }
</style>
<g style="transform-origin:141px 67.5px;transform:scale(1)">
<g transform="translate(141,67.5)">
  <g transform="translate(0,0)"><g class="path" style="transform: scale(0.91); transform-origin: -59.995px -4.48564px; animation: 1s linear -0.528s infinite normal forwards running breath-b1ac8549-6c86-41b8-8fc5-1e70e1b5019b;"><path d="M26.91-27.12L25.84-26.91L25.84-26.91Q25.06-26.70 25.06-26.45L25.06-26.45L25.06-26.45Q25.06-26.20 26.77-25.56L26.77-25.56L26.77-25.56Q28.47-24.92 30.00-23.57L30.00-23.57L30.00-23.57Q31.52-22.22 32.16-20.31L32.16-20.31L32.16-20.31Q33.16-17.40 33.16-14.06L33.16-14.06L33.16-14.06Q33.16-10.72 33.65-8.56L33.65-8.56L33.65-8.56Q34.15-6.39 34.86-5.25L34.86-5.25L34.86-5.25Q36.28-2.84 37.49-2.27L37.49-2.27L37.99-1.99L37.99-1.99Q38.41-1.70 38.41-1.28L38.41-1.28L38.41-1.28Q38.41-0.21 34.93 0.60L34.93 0.60L34.93 0.60Q31.45 1.42 29.54 1.42L29.54 1.42L29.54 1.42Q25.77 1.42 24.74-1.60L24.74-1.60L24.74-1.60Q23.71-4.62 23.71-11.93L23.71-11.93L23.71-15.83L23.71-15.83Q23.71-22.01 20.02-23.71L20.02-23.71L20.02-23.71Q18.60-24.35 16.61-24.35L16.61-24.35L16.54-24.35L16.54-24.35Q15.90-24.35 15.90-25.60L15.90-25.60L15.90-25.60Q15.90-26.84 16.65-28.12L16.65-28.12L16.65-28.12Q17.40-29.39 17.96-29.39L17.96-29.39L17.96-29.39Q20.31-29.39 22.01-30.28L22.01-30.28L22.01-30.28Q23.71-31.17 24.50-32.45L24.50-32.45L24.50-32.45Q26.13-35.15 26.27-37.06L26.27-37.06L26.27-37.99L26.27-37.99Q26.27-40.61 25.42-42.42L25.42-42.42L25.42-42.42Q24.57-44.23 23.29-44.94L23.29-44.94L23.29-44.94Q21.16-46.08 18.96-46.08L18.96-46.08L18.96-46.08Q16.76-46.08 15.34-45.72L15.34-45.72L15.34-45.72Q13.35-45.16 13.35-44.52L13.35-44.52L13.35-44.52Q12.71-35.22 12.71-26.59L12.71-26.59L12.71-26.59Q12.71-17.96 12.96-13.38L12.96-13.38L12.96-13.38Q13.21-8.80 13.45-6.00L13.45-6.00L13.45-6.00Q13.70-3.20 13.70-2.70L13.70-2.70L13.70-2.70Q13.70-1.78 13.21-1.42L13.21-1.42L13.21-1.42Q10.30 1.28 4.05 1.28L4.05 1.28L4.05 1.28Q2.98 1.28 2.98 0.57L2.98 0.57L2.98 0.57Q2.98 0.36 3.20-0.43L3.20-0.43L3.20-0.43Q3.91-2.06 4.22-10.79L4.22-10.79L4.22-10.79Q4.54-19.53 4.54-26.73L4.54-26.73L4.54-26.73Q4.54-33.94 4.26-38.41L4.26-38.41L4.26-38.41Q3.83-45.16 2.84-46.51L2.84-46.51L2.84-46.51Q2.06-47.50 2.06-47.89L2.06-47.89L2.06-47.89Q2.06-48.28 2.84-48.71L2.84-48.71L2.84-48.71Q7.38-50.84 19.31-50.84L19.31-50.84L19.31-50.84Q28.90-50.84 33.65-45.44L33.65-45.44L33.65-45.44Q36.21-42.46 36.21-37.99L36.21-37.99L36.21-37.99Q36.21-35.29 35.15-33.16L35.15-33.16L35.15-33.16Q34.08-31.03 32.52-29.89L32.52-29.89L32.52-29.89Q29.54-27.62 26.91-27.12L26.91-27.12" fill="#51cacc" stroke="none" stroke-width="none" transform="translate(-80.22996807098389,20.224357147216796)" style="fill: rgb(81, 202, 204);"></path></g><g class="path" style="transform: scale(0.91); transform-origin: -22.79px -4.59064px; animation: 1s linear -0.396s infinite normal forwards running breath-b1ac8549-6c86-41b8-8fc5-1e70e1b5019b;"><path d="M58.22-45.58L58.22-45.58L58.22-45.58Q55.66-45.58 53.96-43.74L53.96-43.74L53.96-43.74Q50.98-40.47 50.98-35.46L50.98-35.46L50.98-35.46Q50.98-30.46 53.53-29.47L53.53-29.47L53.53-29.47Q54.17-29.25 54.17-28.54L54.17-28.54L54.17-28.54Q54.17-26.41 52.75-24.96L52.75-24.96L52.75-24.96Q51.33-23.50 49.27-23.22L49.27-23.22L49.27-23.22Q48.64-23.22 48.64-22.72L48.64-22.72L48.64-22.72Q48.56-21.94 48.56-20.48L48.56-20.48L48.56-20.48Q48.56-19.03 48.71-17.29L48.71-17.29L48.71-17.29Q48.85-15.55 49.38-13.17L49.38-13.17L49.38-13.17Q49.91-10.79 50.80-9.05L50.80-9.05L50.80-9.05Q51.69-7.31 53.36-6.07L53.36-6.07L53.36-6.07Q55.03-4.83 57.69-4.83L57.69-4.83L57.69-4.83Q60.35-4.83 62.48-6.96L62.48-6.96L62.48-6.96Q64.61-9.09 65.46-12.50L65.46-12.50L65.46-12.50Q67.02-18.46 67.02-23.96L67.02-23.96L67.02-23.96Q67.02-29.47 66.31-33.65L66.31-33.65L66.31-33.65Q65.60-37.84 64.65-40.04L64.65-40.04L64.65-40.04Q63.69-42.25 62.34-43.59L62.34-43.59L62.34-43.59Q60.99-44.94 60.07-45.26L60.07-45.26L60.07-45.26Q59.14-45.58 58.22-45.58zM45.30-38.55L45.30-38.55L45.58-38.98L45.58-38.98Q46.29-42.25 47.89-44.62L47.89-44.62L47.89-44.62Q49.49-47.00 51.08-48.17L51.08-48.17L51.08-48.17Q52.68-49.35 54.67-49.98L54.67-49.98L54.67-49.98Q57.30-50.84 59.29-50.84L59.29-50.84L59.29-50.84Q64.04-50.84 67.49-48.64L67.49-48.64L67.49-48.64Q70.93-46.43 72.70-42.67L72.70-42.67L72.70-42.67Q75.97-35.50 75.97-26.41L75.97-26.41L75.97-26.41Q75.97-11.15 68.87-4.19L68.87-4.19L68.87-4.19Q65.39-0.78 61.20 0.43L61.20 0.43L61.20 0.43Q58.58 1.21 56.16 1.21L56.16 1.21L56.16 1.21Q47.29 1.21 43.10-4.86L43.10-4.86L43.10-4.86Q38.91-10.93 38.91-20.24L38.91-20.24L38.91-20.24Q38.91-25.63 39.83-30.14L39.83-30.14L39.83-30.14Q40.75-34.65 41.75-36.49L41.75-36.49L42.67-38.34L42.67-38.34Q42.96-38.98 43.59-38.98L43.59-38.98L43.59-38.98Q44.23-38.98 44.55-38.87L44.55-38.87L44.55-38.87Q44.87-38.77 45.05-38.66L45.05-38.66L45.05-38.66Q45.23-38.55 45.30-38.55" fill="#51cacc" stroke="none" stroke-width="none" transform="translate(-80.22996807098389,20.224357147216796)" style="fill: rgb(157, 248, 113);"></path></g><g class="path" style="transform: scale(0.91); transform-origin: 16.225px -4.55564px; animation: 1s linear -0.264s infinite normal forwards running breath-b1ac8549-6c86-41b8-8fc5-1e70e1b5019b;"><path d="M91.45-31.45L91.45-31.45L91.45-30.46L104.02-30.46L104.02-30.60L104.02-30.60Q104.09-32.31 104.09-34.90L104.09-34.90L104.09-34.90Q104.09-37.49 104.02-39.44L104.02-39.44L104.02-39.44Q103.94-41.39 103.87-42.74L103.87-42.74L103.87-42.74Q103.80-44.09 103.70-45.09L103.70-45.09L103.70-45.09Q103.59-46.08 103.52-46.61L103.52-46.61L103.52-46.61Q103.45-47.14 103.45-47.57L103.45-47.57L103.45-47.57Q103.45-48.00 104.23-48.56L104.23-48.56L104.23-48.56Q107.64-50.84 111.83-50.84L111.83-50.84L111.83-50.84Q114.45-50.84 114.45-49.91L114.45-49.91L114.45-49.91Q114.45-49.84 114.31-49.13L114.31-49.13L114.31-49.13Q112.96-42.39 112.61-30.46L112.61-30.46L112.61-30.46Q112.39-18.53 112.39-17.68L112.39-17.68L112.39-17.68Q112.39-6.67 113.67-2.41L113.67-2.41L113.67-2.41Q113.88-1.85 113.88-1.46L113.88-1.46L113.88-1.46Q113.88-1.07 113.32-0.57L113.32-0.57L113.32-0.57Q110.69 1.14 106.50 1.14L106.50 1.14L106.50 1.14Q103.80 1.14 103.45-0.71L103.45-0.71L103.45-0.71Q103.23-1.70 103.23-3.80L103.23-3.80L103.23-3.80Q103.23-5.89 103.48-10.22L103.48-10.22L103.48-10.22Q103.73-14.56 103.87-25.35L103.87-25.35L91.45-25.35L91.45-25.35Q91.45-9.16 92.44-2.63L92.44-2.63L92.44-2.63Q92.44-0.92 89.18 0.18L89.18 0.18L89.18 0.18Q85.91 1.28 83.78 1.28L83.78 1.28L83.78 1.28Q81.65 1.28 81.65 0.64L81.65 0.64L81.65 0.64Q81.65 0.21 81.86-0.43L81.86-0.43L81.86-0.43Q83.21-3.41 83.21-24.42L83.21-24.42L83.21-25.35L79.02-25.35L79.02-25.35Q78.46-25.35 78.46-25.77L78.46-25.77L78.46-25.77Q78.46-25.92 78.74-26.87L78.74-26.87L78.74-26.87Q79.02-27.83 80.05-29.11L80.05-29.11L80.05-29.11Q81.08-30.39 82.36-30.39L82.36-30.39L83.14-30.39L83.14-30.39Q83.14-44.38 81.51-46.51L81.51-46.51L81.22-46.93L81.22-46.93Q80.80-47.29 80.80-47.82L80.80-47.82L80.80-47.82Q80.80-48.35 81.58-48.71L81.58-48.71L81.58-48.71Q82.64-49.35 85.38-49.98L85.38-49.98L85.38-49.98Q88.11-50.62 90.31-50.62L90.31-50.62L90.31-50.62Q92.51-50.62 92.51-49.63L92.51-49.63L92.51-49.42L92.51-49.42Q91.66-42.03 91.45-31.45" fill="#51cacc" stroke="none" stroke-width="none" transform="translate(-80.22996807098389,20.224357147216796)" style="fill: rgb(224, 255, 119);"></path></g><g class="path" style="transform: scale(0.91); transform-origin: 44.835px -4.44564px; animation: 1s linear -0.132s infinite normal forwards running breath-b1ac8549-6c86-41b8-8fc5-1e70e1b5019b;"><path d="M129.86-31.45L129.86-31.45L129.86-31.45Q129.86-9.44 130.85-2.63L130.85-2.63L130.85-2.63Q130.85-0.92 127.59 0.18L127.59 0.18L127.59 0.18Q124.32 1.28 122.19 1.28L122.19 1.28L122.19 1.28Q120.06 1.28 120.06 0.64L120.06 0.64L120.06 0.64Q120.06 0.21 120.27-0.43L120.27-0.43L120.27-0.43Q121.62-3.41 121.62-24.42L121.62-24.42L121.62-24.42Q121.62-44.30 119.92-46.51L119.92-46.51L119.64-46.93L119.64-46.93Q119.21-47.29 119.21-47.82L119.21-47.82L119.21-47.82Q119.21-48.35 119.99-48.71L119.99-48.71L119.99-48.71Q121.06-49.35 123.79-49.98L123.79-49.98L123.79-49.98Q126.52-50.62 128.72-50.62L128.72-50.62L128.72-50.62Q130.92-50.62 130.92-49.63L130.92-49.63L130.92-49.42L130.92-49.42Q130.07-42.03 129.86-31.45" fill="#51cacc" stroke="none" stroke-width="none" transform="translate(-80.22996807098389,20.224357147216796)" style="fill: rgb(222, 157, 214);"></path></g><g class="path" style="transform: scale(0.91); transform-origin: 67.06px -5.01564px; animation: 1s linear 0s infinite normal forwards running breath-b1ac8549-6c86-41b8-8fc5-1e70e1b5019b;"><path d="M141.43-50.55L141.43-50.55L151.66-49.98L151.66-49.98Q158.47-49.98 161.45-51.62L161.45-51.62L161.45-51.62Q161.88-51.90 162.20-51.90L162.20-51.90L162.20-51.90Q162.52-51.90 162.52-50.91L162.52-50.91L162.52-50.91Q162.52-49.91 161.31-47.64L161.31-47.64L161.31-47.64Q159.54-44.16 156.20-44.16L156.20-44.16L152.30-44.23L152.30-44.23Q151.73-44.23 151.59-43.59L151.59-43.59L151.59-43.59Q151.09-33.16 151.09-21.05L151.09-21.05L151.09-21.05Q151.09-8.95 152.08-2.84L152.08-2.84L152.08-2.49L152.08-2.49Q152.08-0.71 148.71 0.36L148.71 0.36L148.71 0.36Q145.34 1.42 142.36 1.42L142.36 1.42L142.36 1.42Q140.94 1.42 140.94 0.64L140.94 0.64L140.94 0.64Q140.94 0.43 141.15-0.36L141.15-0.36L141.15-0.36Q141.93-1.92 142.53-15.48L142.53-15.48L142.53-15.48Q143.14-29.04 143.14-35.93L143.14-35.93L142.99-43.67L142.99-43.67Q142.99-44.09 142.57-44.16L142.57-44.16L142.57-44.16Q141.08-44.45 139.16-44.45L139.16-44.45L139.16-44.45Q135.33-44.45 133.48-42.88L133.48-42.88L133.48-42.88Q132.98-42.53 132.52-42.53L132.52-42.53L132.52-42.53Q132.06-42.53 132.06-43.10L132.06-43.10L132.06-43.10Q132.06-43.95 132.95-45.44L132.95-45.44L132.95-45.44Q133.84-46.93 134.83-48.00L134.83-48.00L134.83-48.00Q137.24-50.55 141.43-50.55" fill="#51cacc" stroke="none" stroke-width="none" transform="translate(-80.22996807098389,20.224357147216796)" style="fill: rgb(255, 112, 142);"></path></g></g>
</g>
</g>
<style id="breath-b1ac8549-6c86-41b8-8fc5-1e70e1b5019b" data-anikit="">@keyframes breath-b1ac8549-6c86-41b8-8fc5-1e70e1b5019b
{
  0% {
    animation-timing-function: cubic-bezier(0.9647,0.2413,-0.0705,0.7911);
    transform: scale(0.9099999999999999);
  }
  51% {
    animation-timing-function: cubic-bezier(0.9226,0.2631,-0.0308,0.7628);
    transform: scale(1.02994);
  }
  100% {
    transform: scale(0.9099999999999999);
  }
}</style></svg>
