<?xml version="1.0" encoding="utf-8"?>
<svg xmlns="http://www.w3.org/2000/svg" style="margin: auto; background: rgb(255, 251, 243); display: block; shape-rendering: auto;" width="282" height="135" preserveAspectRatio="xMidYMid">
<style type="text/css">
  text {
    text-anchor: middle; font-size: 71px; opacity: 0;
  }
</style>
<g style="transform-origin:141px 67.5px;transform:scale(1)">
<g transform="translate(141,67.5)">
  <g transform="translate(0,0)"><g class="path" style="transform: scale(0.91); transform-origin: -112.32px -4.5838px; animation: 1s linear -0.565714s infinite normal forwards running breath-b1ac8549-6c86-41b8-8fc5-1e70e1b5019b;"><path d="M26.91-14.13L26.77-20.87L26.77-20.87Q26.77-22.51 24.78-22.65L24.78-22.65L19.74-22.65L19.74-22.65Q19.17-22.65 19.17-23.00L19.17-23.00L19.17-23.00Q19.60-25.06 20.66-26.31L20.66-26.31L20.66-26.31Q21.73-27.55 22.44-27.69L22.44-27.69L22.44-27.69Q24.42-27.97 28.97-27.97L28.97-27.97L28.97-27.97Q33.51-27.97 34.65-27.94L34.65-27.94L34.65-27.94Q35.78-27.90 36.07-27.69L36.07-27.69L36.07-27.69Q36.35-27.34 36.35-26.87L36.35-26.87L36.35-26.87Q36.35-26.41 36.10-20.98L36.10-20.98L36.10-20.98Q35.86-15.55 35.86-11.25L35.86-11.25L35.86-11.25Q35.86-6.96 36.14-5.86L36.14-5.86L36.14-5.86Q36.42-4.76 36.42-4.47L36.42-4.47L36.42-4.47Q36.42-3.34 34.44-2.02L34.44-2.02L34.44-2.02Q32.45-0.71 28.44 0.28L28.44 0.28L28.44 0.28Q24.42 1.28 19.60 1.28L19.60 1.28L19.60 1.28Q13.14 1.28 8.38-3.20L8.38-3.20L8.38-3.20Q4.69-6.75 3.30-10.93L3.30-10.93L3.30-10.93Q1.92-15.12 1.92-22.72L1.92-22.72L1.92-22.72Q1.92-50.91 22.58-50.91L22.58-50.91L22.58-50.91Q26.06-50.91 28.83-50.16L28.83-50.16L28.83-50.16Q31.60-49.42 33.69-47.25L33.69-47.25L33.69-47.25Q35.78-45.09 35.78-41.68L35.78-41.68L35.78-41.68Q35.78-39.90 35.07-38.06L35.07-38.06L35.07-38.06Q33.80-34.29 29.39-34.29L29.39-34.29L29.39-34.29Q26.98-34.29 25.74-35.54L25.74-35.54L25.74-35.54Q24.50-36.78 24.50-38.98L24.50-38.98L24.50-38.98Q24.50-39.83 25.42-40.04L25.42-40.04L25.42-40.04Q26.77-40.83 26.77-42.71L26.77-42.71L26.77-42.71Q26.77-44.59 25.35-45.62L25.35-45.62L25.35-45.62Q23.93-46.65 22.37-46.65L22.37-46.65L22.37-46.65Q18.96-46.65 16.61-44.20L16.61-44.20L16.61-44.20Q14.27-41.75 13.21-37.77L13.21-37.77L13.21-37.77Q11.43-30.67 11.43-23.29L11.43-23.29L11.43-23.29Q11.43-11.22 17.32-7.24L17.32-7.24L17.32-7.24Q19.53-5.68 21.94-5.68L21.94-5.68L21.94-5.68Q26.41-5.68 26.70-7.31L26.70-7.31L26.70-7.31Q26.91-9.51 26.91-14.13L26.91-14.13" fill="#51cacc" stroke="none" stroke-width="none" transform="translate(-131.49000549316406,20.23120188031878)" style="fill: rgb(81, 202, 204);"></path></g><g class="path" style="transform: scale(0.91); transform-origin: -72.7px -4.8688px; animation: 1s linear -0.471429s infinite normal forwards running breath-b1ac8549-6c86-41b8-8fc5-1e70e1b5019b;"><path d="M58.72-40.68L58.72-40.68L58.72-40.68Q53.11-33.65 50.62-26.63L50.62-26.63L50.69-26.63L50.69-26.63Q60.56-26.63 62.02-26.59L62.02-26.59L62.02-26.59Q63.47-26.55 63.62-26.70L63.62-26.70L63.62-26.70Q63.76-26.84 63.83-27.05L63.83-27.05L63.83-27.05Q62.62-35.78 61.91-38.94L61.91-38.94L61.91-38.94Q61.20-42.10 60.49-42.10L60.49-42.10L60.49-42.10Q59.78-42.10 58.72-40.68zM52.40-7.24L52.40-7.24L53.96-7.53L53.96-7.53Q54.67-7.53 54.67-6.75L54.67-6.75L54.67-6.75Q54.67-4.26 53.68-2.56L53.68-2.56L53.68-2.56Q52.68-0.85 51.19-0.14L51.19-0.14L51.19-0.14Q48.78 1.07 47.07 1.07L47.07 1.07L47.07 1.07Q43.81 1.07 42.17-1.38L42.17-1.38L42.17-1.38Q40.54-3.83 40.54-8.77L40.54-8.77L40.54-8.77Q40.54-13.70 43.24-21.58L43.24-21.58L39.12-21.58L39.12-21.58Q38.34-21.58 38.34-22.37L38.34-22.37L38.34-22.37Q38.34-23.15 39.55-24.89L39.55-24.89L39.55-24.89Q40.75-26.63 42.10-26.63L42.10-26.63L45.30-26.63L45.30-26.63Q50.34-37.84 57.16-46.01L57.16-46.01L57.16-46.01Q58.93-48.14 61.52-49.98L61.52-49.98L61.52-49.98Q64.11-51.83 65.53-51.83L65.53-51.83L65.53-51.83Q66.95-51.83 67.66-50.55L67.66-50.55L67.66-50.55Q69.51-47.57 71.99-28.76L71.99-28.76L71.99-28.76Q72.85-20.66 74.94-12.03L74.94-12.03L74.94-12.03Q77.03-3.41 78.81-1.99L78.81-1.99L78.81-1.99Q79.24-1.70 79.24-1.28L79.24-1.28L79.24-1.28Q79.24-0.21 76.22 0.71L76.22 0.71L76.22 0.71Q73.20 1.63 71.60 1.63L71.60 1.63L71.60 1.63Q70.01 1.63 69.15 1.24L69.15 1.24L69.15 1.24Q68.30 0.85 68.09 0.43L68.09 0.43L68.09 0.43Q66.81-2.34 65.53-12.78L65.53-12.78L65.11-16.12L65.11-16.12Q64.82-19.45 64.54-21.16L64.54-21.16L64.04-21.51L49.20-21.58L49.20-21.58Q48.35-17.96 48.35-15.27L48.35-15.27L48.35-15.27Q48.35-12.57 48.53-11.32L48.53-11.32L48.53-11.32Q48.71-10.08 49.70-8.66L49.70-8.66L49.70-8.66Q50.69-7.24 52.40-7.24" fill="#51cacc" stroke="none" stroke-width="none" transform="translate(-131.49000549316406,20.23120188031878)" style="fill: rgb(157, 248, 113);"></path></g><g class="path" style="transform: scale(0.91); transform-origin: -43.98px -4.4388px; animation: 1s linear -0.377143s infinite normal forwards running breath-b1ac8549-6c86-41b8-8fc5-1e70e1b5019b;"><path d="M92.30-31.45L92.30-31.45L92.30-31.45Q92.30-9.44 93.29-2.63L93.29-2.63L93.29-2.63Q93.29-0.92 90.03 0.18L90.03 0.18L90.03 0.18Q86.76 1.28 84.63 1.28L84.63 1.28L84.63 1.28Q82.50 1.28 82.50 0.64L82.50 0.64L82.50 0.64Q82.50 0.21 82.72-0.43L82.72-0.43L82.72-0.43Q84.06-3.41 84.06-24.42L84.06-24.42L84.06-24.42Q84.06-44.30 82.36-46.51L82.36-46.51L82.08-46.93L82.08-46.93Q81.65-47.29 81.65-47.82L81.65-47.82L81.65-47.82Q81.65-48.35 82.43-48.71L82.43-48.71L82.43-48.71Q83.50-49.35 86.23-49.98L86.23-49.98L86.23-49.98Q88.96-50.62 91.16-50.62L91.16-50.62L91.16-50.62Q93.37-50.62 93.37-49.63L93.37-49.63L93.37-49.42L93.37-49.42Q92.51-42.03 92.30-31.45" fill="#51cacc" stroke="none" stroke-width="none" transform="translate(-131.49000549316406,20.23120188031878)" style="fill: rgb(224, 255, 119);"></path></g><g class="path" style="transform: scale(0.91); transform-origin: -15.9px -4.5488px; animation: 1s linear -0.282857s infinite normal forwards running breath-b1ac8549-6c86-41b8-8fc5-1e70e1b5019b;"><path d="M117.93-43.45L117.93-43.45L117.93-43.45Q119.78-45.80 121.66-47.82L121.66-47.82L121.66-47.82Q123.54-49.84 124.75-50.34L124.75-50.34L124.75-50.34Q125.95-50.84 129.65-50.84L129.65-50.84L129.65-50.84Q133.34-50.84 133.34-49.91L133.34-49.91L133.34-49.91Q133.34-49.56 132.56-49.13L132.56-49.13L132.56-49.13Q131.78-48.71 130.43-47.78L130.43-47.78L130.43-47.78Q129.08-46.86 124.78-42.74L124.78-42.74L124.78-42.74Q120.49-38.62 116.16-33.09L116.16-33.09L116.16-33.09Q116.01-32.94 116.01-32.70L116.01-32.70L116.01-32.70Q116.01-32.45 116.40-32.38L116.40-32.38L116.40-32.38Q116.80-32.31 117.51-32.16L117.51-32.16L117.51-32.16Q118.22-32.02 120.10-31.06L120.10-31.06L120.10-31.06Q121.98-30.10 123.47-28.65L123.47-28.65L123.47-28.65Q124.96-27.19 126.34-24.18L126.34-24.18L126.34-24.18Q127.73-21.16 127.94-18.50L127.94-18.50L127.94-18.50Q128.16-15.83 128.37-13.70L128.37-13.70L128.37-13.70Q128.58-11.57 129.47-7.60L129.47-7.60L129.47-7.60Q130.36-3.62 131.56-2.84L131.56-2.84L131.56-2.84Q131.92-2.56 131.92-2.13L131.92-2.13L131.92-2.13Q131.92-0.99 128.79-0.04L128.79-0.04L128.79-0.04Q125.67 0.92 123.22 0.92L123.22 0.92L123.22 0.92Q120.77 0.92 120.42-1.07L120.42-1.07L120.42-1.07Q120.06-3.20 119.92-11.22L119.92-11.22L119.92-14.06L119.92-14.06Q119.92-21.51 117.79-24.85L117.79-24.85L117.79-24.85Q115.94-27.76 114.45-28.12L114.45-28.12L114.45-28.12Q113.32-28.47 113.25-28.47L113.25-28.47L112.46-28.12L112.46-28.12Q110.76-26.13 109.77-24.28L109.77-24.28L109.77-24.28Q108.77-22.44 108.70-21.58L108.70-21.58L108.56-20.66L108.56-20.66Q108.56-10.65 109.41-3.55L109.41-3.55L109.41-3.55Q109.55-2.70 109.55-2.56L109.55-2.56L109.55-2.56Q109.55-0.99 106.25 0.14L106.25 0.14L106.25 0.14Q102.95 1.28 100.86 1.28L100.86 1.28L100.86 1.28Q98.76 1.28 98.76 0.64L98.76 0.64L98.76 0.64Q98.76 0.21 98.97-0.43L98.97-0.43L98.97-0.43Q99.68-1.99 100.00-10.76L100.00-10.76L100.00-10.76Q100.32-19.53 100.32-26.73L100.32-26.73L100.32-26.73Q100.32-33.94 100.04-38.41L100.04-38.41L100.04-38.41Q99.61-45.16 98.62-46.51L98.62-46.51L98.62-46.51Q97.84-47.50 97.84-47.78L97.84-47.78L97.84-47.78Q97.84-48.78 101.49-49.70L101.49-49.70L101.49-49.70Q105.15-50.62 107.39-50.62L107.39-50.62L107.39-50.62Q109.62-50.62 109.62-49.63L109.62-49.63L109.55-48.71L109.55-48.71Q108.63-41.04 108.63-32.31L108.63-32.31L108.63-32.31Q108.63-31.60 108.95-31.60L108.95-31.60L108.95-31.60Q109.27-31.60 109.70-32.23L109.70-32.23L109.70-32.23Q110.12-32.87 110.94-34.01L110.94-34.01L110.94-34.01Q111.75-35.15 113.92-38.13L113.92-38.13L113.92-38.13Q116.09-41.11 117.93-43.45" fill="#51cacc" stroke="none" stroke-width="none" transform="translate(-131.49000549316406,20.23120188031878)" style="fill: rgb(222, 157, 214);"></path></g><g class="path" style="transform: scale(0.91); transform-origin: 28.935px -4.4388px; animation: 1s linear -0.188571s infinite normal forwards running breath-b1ac8549-6c86-41b8-8fc5-1e70e1b5019b;"><path d="M157.73-25.21L157.73-25.21L157.73-25.21Q158.40-26.98 158.86-28.86L158.86-28.86L158.86-28.86Q159.32-30.74 159.32-32.34L159.32-32.34L159.32-32.34Q159.32-33.94 158.19-38.27L158.19-38.27L158.19-38.27Q156.20-45.51 154.78-46.86L154.78-46.86L154.35-47.36L154.35-47.36Q153.64-47.78 153.64-48.35L153.64-48.35L153.64-48.35Q153.64-49.56 156.84-50.41L156.84-50.41L156.84-50.41Q160.03-51.26 162.06-51.26L162.06-51.26L162.06-51.26Q164.08-51.26 164.44-50.06L164.44-50.06L164.44-50.06Q165.29-47.43 166.32-42.46L166.32-42.46L166.32-42.46Q167.35-37.49 168.09-33.90L168.09-33.90L168.09-33.90Q168.84-30.32 169.26-28.40L169.26-28.40L169.26-28.40Q169.69-26.48 170.40-23.43L170.40-23.43L170.40-23.43Q171.75-17.75 173.10-14.13L173.10-14.13L173.10-14.13Q173.52-13.14 174.13-13.14L174.13-13.14L174.13-13.14Q174.73-13.14 175.41-14.38L175.41-14.38L175.41-14.38Q176.08-15.62 177.25-17.93L177.25-17.93L177.25-17.93Q178.42-20.24 180.38-26.13L180.38-26.13L180.38-26.13Q182.33-32.02 182.33-36.35L182.33-36.35L182.33-36.35Q182.33-43.03 177.93-45.80L177.93-45.80L177.93-45.80Q177.57-46.22 177.57-46.72L177.57-46.72L177.57-46.72Q177.57-47.22 178.07-47.71L178.07-47.71L178.07-47.71Q178.57-48.07 179.49-48.67L179.49-48.67L179.49-48.67Q180.41-49.27 183.18-50.23L183.18-50.23L183.18-50.23Q185.95-51.19 188.15-51.19L188.15-51.19L188.15-51.19Q190.35-51.19 190.78-50.59L190.78-50.59L190.78-50.59Q191.20-49.98 191.20-48.42L191.20-48.42L191.20-48.42Q191.20-41.54 187.12-30.14L187.12-30.14L187.12-30.14Q183.04-18.74 178.46-10.05L178.46-10.05L178.46-10.05Q173.88-1.35 171.61 0.85L171.61 0.85L171.61 0.85Q170.40 1.92 170.19 1.92L170.19 1.92L170.19 1.92Q169.55 1.92 168.98 0.92L168.98 0.92L168.98 0.92Q166.57-3.12 163.73-14.91L163.73-14.91L163.73-14.91Q162.45-20.45 162.24-21.16L162.24-21.16L162.24-21.16Q162.02-21.87 161.88-21.87L161.88-21.87L161.88-21.87Q161.53-21.87 161.24-21.16L161.24-21.16L161.24-21.16Q158.76-15.41 155.70-9.90L155.70-9.90L155.70-9.90Q152.65-4.40 150.80-1.78L150.80-1.78L149.03 0.85L149.03 0.85Q148.32 1.85 147.61 1.85L147.61 1.85L147.61 1.85Q146.90 1.85 146.33 0.92L146.33 0.92L146.33 0.92Q144.41-2.70 141.65-13.06L141.65-13.06L140.72-16.61L140.72-16.61Q140.44-17.61 139.44-22.01L139.44-22.01L139.44-22.01Q135.68-38.84 133.69-43.03L133.69-43.03L133.69-43.03Q132.56-45.37 131.74-46.08L131.74-46.08L131.74-46.08Q130.92-46.79 130.43-46.93L130.43-46.93L130.43-46.93Q129.65-47.29 129.65-47.82L129.65-47.82L129.65-47.82Q129.65-48.35 130.21-48.85L130.21-48.85L130.21-48.85Q131.07-49.49 133.98-50.37L133.98-50.37L133.98-50.37Q136.89-51.26 138.88-51.26L138.88-51.26L138.88-51.26Q140.86-51.26 141.22-50.06L141.22-50.06L141.22-50.06Q142.64-47.43 144.56-38.27L144.56-38.27L144.56-38.27Q148.60-19.10 150.52-14.13L150.52-14.13L150.52-14.13Q150.88-13.14 151.51-13.14L151.51-13.14L151.51-13.14Q152.15-13.14 152.65-14.20L152.65-14.20L152.65-14.20Q153.29-14.84 155.17-19.13L155.17-19.13L155.17-19.13Q157.05-23.43 157.73-25.21" fill="#51cacc" stroke="none" stroke-width="none" transform="translate(-131.49000549316406,20.23120188031878)" style="fill: rgb(255, 112, 142);"></path></g><g class="path" style="transform: scale(0.91); transform-origin: 76.825px -4.8688px; animation: 1s linear -0.0942857s infinite normal forwards running breath-b1ac8549-6c86-41b8-8fc5-1e70e1b5019b;"><path d="M208.24-40.68L208.24-40.68L208.24-40.68Q202.63-33.65 200.15-26.63L200.15-26.63L200.22-26.63L200.22-26.63Q210.09-26.63 211.54-26.59L211.54-26.59L211.54-26.59Q213.00-26.55 213.14-26.70L213.14-26.70L213.14-26.70Q213.28-26.84 213.36-27.05L213.36-27.05L213.36-27.05Q212.15-35.78 211.44-38.94L211.44-38.94L211.44-38.94Q210.73-42.10 210.02-42.10L210.02-42.10L210.02-42.10Q209.31-42.10 208.24-40.68zM201.92-7.24L201.92-7.24L203.49-7.53L203.49-7.53Q204.20-7.53 204.20-6.75L204.20-6.75L204.20-6.75Q204.20-4.26 203.20-2.56L203.20-2.56L203.20-2.56Q202.21-0.85 200.72-0.14L200.72-0.14L200.72-0.14Q198.30 1.07 196.60 1.07L196.60 1.07L196.60 1.07Q193.33 1.07 191.70-1.38L191.70-1.38L191.70-1.38Q190.07-3.83 190.07-8.77L190.07-8.77L190.07-8.77Q190.07-13.70 192.77-21.58L192.77-21.58L188.65-21.58L188.65-21.58Q187.87-21.58 187.87-22.37L187.87-22.37L187.87-22.37Q187.87-23.15 189.07-24.89L189.07-24.89L189.07-24.89Q190.28-26.63 191.63-26.63L191.63-26.63L194.82-26.63L194.82-26.63Q199.87-37.84 206.68-46.01L206.68-46.01L206.68-46.01Q208.46-48.14 211.05-49.98L211.05-49.98L211.05-49.98Q213.64-51.83 215.06-51.83L215.06-51.83L215.06-51.83Q216.48-51.83 217.19-50.55L217.19-50.55L217.19-50.55Q219.04-47.57 221.52-28.76L221.52-28.76L221.52-28.76Q222.37-20.66 224.47-12.03L224.47-12.03L224.47-12.03Q226.56-3.41 228.34-1.99L228.34-1.99L228.34-1.99Q228.76-1.70 228.76-1.28L228.76-1.28L228.76-1.28Q228.76-0.21 225.74 0.71L225.74 0.71L225.74 0.71Q222.73 1.63 221.13 1.63L221.13 1.63L221.13 1.63Q219.53 1.63 218.68 1.24L218.68 1.24L218.68 1.24Q217.83 0.85 217.62 0.43L217.62 0.43L217.62 0.43Q216.34-2.34 215.06-12.78L215.06-12.78L214.63-16.12L214.63-16.12Q214.35-19.45 214.07-21.16L214.07-21.16L213.57-21.51L198.73-21.58L198.73-21.58Q197.88-17.96 197.88-15.27L197.88-15.27L197.88-15.27Q197.88-12.57 198.05-11.32L198.05-11.32L198.05-11.32Q198.23-10.08 199.23-8.66L199.23-8.66L199.23-8.66Q200.22-7.24 201.92-7.24" fill="#51cacc" stroke="none" stroke-width="none" transform="translate(-131.49000549316406,20.23120188031878)" style="fill: rgb(81, 202, 204);"></path></g><g class="path" style="transform: scale(0.91); transform-origin: 116.23px -4.7288px; animation: 1s linear 0s infinite normal forwards running breath-b1ac8549-6c86-41b8-8fc5-1e70e1b5019b;"><path d="M245.38-46.01L245.38-46.01L245.38-46.01Q244.10-46.01 243.18-45.58L243.18-45.58L243.18-45.58Q242.25-45.16 242.25-44.52L242.25-44.52L242.25-44.52Q241.40-41.54 241.40-26.73L241.40-26.73L241.40-26.73Q241.40-11.93 241.33-10.15L241.33-10.15L241.33-10.15Q242.68-8.02 245.52-8.02L245.52-8.02L245.52-8.02Q250.56-8.02 253.12-13.60L253.12-13.60L253.12-13.60Q255.67-19.17 255.67-27.58L255.67-27.58L255.67-27.58Q255.67-36.00 253.19-41.00L253.19-41.00L253.19-41.00Q250.70-46.01 245.38-46.01zM231.82 0.78L231.82 0.78L231.82 0.78Q230.75 0.64 230.75 0.14L230.75 0.14L230.96-0.71L230.96-0.71Q232.74-4.54 232.74-28.33L232.74-28.33L232.74-28.33Q232.74-39.69 232.13-42.53L232.13-42.53L232.13-42.53Q231.53-45.37 231.18-46.15L231.18-46.15L230.82-46.86L230.82-46.86Q230.54-47.14 230.54-47.68L230.54-47.68L230.54-47.68Q230.54-48.21 231.39-48.56L231.39-48.56L231.39-48.56Q236.93-50.77 245.94-50.77L245.94-50.77L245.94-50.77Q264.90-50.77 264.90-26.63L264.90-26.63L264.90-26.63Q264.90-17.18 261.56-9.37L261.56-9.37L261.56-9.37Q260.22-6.39 258.44-4.22L258.44-4.22L258.44-4.22Q256.67-2.06 253.79-0.60L253.79-0.60L253.79-0.60Q250.91 0.85 247.44 0.85L247.44 0.85L247.44 0.85Q246.73 0.78 245.62 0.64L245.62 0.64L245.62 0.64Q244.52 0.50 242.36-0.43L242.36-0.43L242.36-0.43Q240.19-1.35 239.41-2.84L239.41-2.84L239.41-2.84Q236.79 0.78 231.82 0.78" fill="#51cacc" stroke="none" stroke-width="none" transform="translate(-131.49000549316406,20.23120188031878)" style="fill: rgb(157, 248, 113);"></path></g></g>
</g>
</g>
<style id="breath-b1ac8549-6c86-41b8-8fc5-1e70e1b5019b" data-anikit="">@keyframes breath-b1ac8549-6c86-41b8-8fc5-1e70e1b5019b
{
  0% {
    animation-timing-function: cubic-bezier(0.9647,0.2413,-0.0705,0.7911);
    transform: scale(0.9099999999999999);
  }
  51% {
    animation-timing-function: cubic-bezier(0.9226,0.2631,-0.0308,0.7628);
    transform: scale(1.02994);
  }
  100% {
    transform: scale(0.9099999999999999);
  }
}</style></svg>